{"accessors" : [{"bufferView" : 0, "byteOffset" : 0, "componentType" : 5123, "count" : 12582, "type" : "SCALAR", "max" : [12581], "min" : [0]}, {"bufferView" : 1, "byteOffset" : 0, "componentType" : 5126, "count" : 12582, "type" : "VEC3", "max" : [17.045303344726562, 30.28580093383789, 51.32350540161133], "min" : [-17.045299530029297, -16.362199783325195, -0.014675999991595745], "name" : "POSITION"}, {"bufferView" : 1, "byteOffset" : 12, "componentType" : 5126, "count" : 12582, "type" : "VEC3", "max" : [1.0000041723251343, 0.9998917579650879, 0.999923050403595], "min" : [-1.0000041723251343, -0.9996667504310608, -1.0000044107437134], "name" : "NORMAL"}, {"bufferView" : 1, "byteOffset" : 24, "componentType" : 5126, "count" : 12582, "type" : "VEC2", "max" : [1, 0.9955329895019531], "min" : [0, 0.005568027496337891], "name" : "TEXCOORD_0"}, {"bufferView" : 0, "byteOffset" : 25164, "componentType" : 5123, "count" : 390, "type" : "SCALAR", "max" : [389], "min" : [0]}, {"bufferView" : 2, "byteOffset" : 0, "componentType" : 5126, "count" : 390, "type" : "VEC3", "max" : [10.081500053405762, -4.784550189971924, 36.518699645996094], "min" : [-10.081500053405762, -12.14590072631836, 29.907699584960938], "name" : "POSITION"}, {"bufferView" : 2, "byteOffset" : 12, "componentType" : 5126, "count" : 390, "type" : "VEC3", "max" : [0.9954087138175964, -0.03200638294219971, 0.627034604549408], "min" : [-0.9954087138175964, -0.8358088731765747, -0.36444178223609924], "name" : "NORMAL"}, {"bufferView" : 2, "byteOffset" : 24, "componentType" : 5126, "count" : 390, "type" : "VEC2", "max" : [0.987559974193573, -2.777240037918091], "min" : [0.012439999729394913, -2.9727299213409424], "name" : "TEXCOORD_0"}, {"bufferView" : 0, "byteOffset" : 25944, "componentType" : 5123, "count" : 336, "type" : "SCALAR", "max" : [335], "min" : [0]}, {"bufferView" : 3, "byteOffset" : 0, "componentType" : 5126, "count" : 336, "type" : "VEC3", "max" : [5.833209991455078, -11.147899627685547, 37.851898193359375], "min" : [-5.833209991455078, -14.441200256347656, 29.85219955444336], "name" : "POSITION"}, {"bufferView" : 3, "byteOffset" : 12, "componentType" : 5126, "count" : 336, "type" : "VEC3", "max" : [0.6034025549888611, -0.20524314045906067, 0.9787154197692871], "min" : [-0.6034025549888611, -0.9997024536132812, -0.41973862051963806], "name" : "NORMAL"}, {"bufferView" : 3, "byteOffset" : 24, "componentType" : 5126, "count" : 336, "type" : "VEC2", "max" : [0.4257700443267822, -1.7560501098632812], "min" : [0.07423299551010132, -1.9943499565124512], "name" : "TEXCOORD_0"}, {"bufferView" : 0, "byteOffset" : 26616, "componentType" : 5123, "count" : 192, "type" : "SCALAR", "max" : [191], "min" : [0]}, {"bufferView" : 4, "byteOffset" : 0, "componentType" : 5126, "count" : 192, "type" : "VEC3", "max" : [7.729869842529297, -6.803328990936279, 41.566497802734375], "min" : [-7.729869842529297, -12.263999938964844, 36.14569854736328], "name" : "POSITION"}, {"bufferView" : 4, "byteOffset" : 12, "componentType" : 5126, "count" : 192, "type" : "VEC3", "max" : [0.7468242049217224, -0.3555698096752167, 0.8695002198219299], "min" : [-0.7468242645263672, -0.7840349674224854, 0.4204040765762329], "name" : "NORMAL"}, {"bufferView" : 4, "byteOffset" : 24, "componentType" : 5126, "count" : 192, "type" : "VEC2", "max" : [0.4938199520111084, -0.7662800550460815], "min" : [0.006175994873046875, -0.9858599901199341], "name" : "TEXCOORD_0"}], "asset" : {"generator" : "Aspose.3D 24.2.0", "version" : "2.0"}, "buffers" : [{"uri" : "buffer.bin", "byteLength" : 459020}], "bufferViews" : [{"buffer" : 0, "byteOffset" : 0, "byteLength" : 27000, "target" : 34963}, {"buffer" : 0, "byteOffset" : 27004, "byteLength" : 402624, "byteStride" : 32, "target" : 34962}, {"buffer" : 0, "byteOffset" : 429632, "byteLength" : 12480, "byteStride" : 32, "target" : 34962}, {"buffer" : 0, "byteOffset" : 442116, "byteLength" : 10752, "byteStride" : 32, "target" : 34962}, {"buffer" : 0, "byteOffset" : 452872, "byteLength" : 6144, "byteStride" : 32, "target" : 34962}], "images" : [{"uri" : "C:\\Users\\RandomTBush\\Desktop\\Models\\Pokemon XY\\Pikachu\\images\\pm0025_00_Eye1.png"}], "materials" : [{"name" : "Material #160", "pbrMetallicRoughness" : {"baseColorFactor" : [1, 1, 1, 1], "baseColorTexture" : {"index" : 0, "texCoord" : 0}, "metallicFactor" : 1, "roughnessFactor" : 1}, "emissiveFactor" : [0, 0, 0], "alphaMode" : "OPAQUE", "doubleSided" : false}, {"name" : "Material #161", "pbrMetallicRoughness" : {"baseColorFactor" : [0.5879999995231628, 0.5879999995231628, 0.5879999995231628, 1], "metallicFactor" : 1, "roughnessFactor" : 1}, "emissiveFactor" : [0, 0, 0], "alphaMode" : "OPAQUE", "doubleSided" : false}, {"name" : "Material #162", "pbrMetallicRoughness" : {"baseColorFactor" : [0.5879999995231628, 0.5879999995231628, 0.5879999995231628, 1], "metallicFactor" : 1, "roughnessFactor" : 1}, "emissiveFactor" : [0, 0, 0], "alphaMode" : "OPAQUE", "doubleSided" : false}, {"name" : "Material #163", "pbrMetallicRoughness" : {"baseColorFactor" : [0.5879999995231628, 0.5879999995231628, 0.5879999995231628, 1], "metallicFactor" : 1, "roughnessFactor" : 1}, "emissiveFactor" : [0, 0, 0], "alphaMode" : "OPAQUE", "doubleSided" : false}], "meshes" : [{"primitives" : [{"attributes" : {"POSITION" : 1, "NORMAL" : 2, "TEXCOORD_0" : 3}, "indices" : 0, "material" : 0, "mode" : 4}, {"attributes" : {"POSITION" : 5, "NORMAL" : 6, "TEXCOORD_0" : 7}, "indices" : 4, "material" : 1, "mode" : 4}, {"attributes" : {"POSITION" : 9, "NORMAL" : 10, "TEXCOORD_0" : 11}, "indices" : 8, "material" : 2, "mode" : 4}, {"attributes" : {"POSITION" : 13, "NORMAL" : 14, "TEXCOORD_0" : 15}, "indices" : 12, "material" : 3, "mode" : 4}], "name" : "PikachuM_ncl1_1"}], "nodes" : [{"matrix" : [1, 0, 0, 0, 0, 2.83276944882399E-16, -1, 0, 0, 1, 2.83276944882399E-16, 0, 0, 0, 0, 1], "mesh" : 0, "name" : "PikachuM"}], "samplers" : [{"magFilter" : 9729, "minFilter" : 9729, "wrapS" : 10497, "wrapT" : 10497}], "scene" : 0, "scenes" : [{"nodes" : [0]}], "textures" : [{"sampler" : 0, "source" : 0, "name" : "Map #50"}]}